<svg xmlns="http://www.w3.org/2000/svg" viewBox="0 220 3493 1015" fill="none" role="img" aria-label="Grapevine">
  <path d="M291 999Q210 999 154.0 953.0Q98 907 69.0 823.5Q40 740 40 626Q40 516 74.0 433.5Q108 351 167.5 305.5Q227 260 304 260Q343 260 375.0 267.5Q407 275 431 287Q444 294 444 308L447 460Q447 477 435 477Q424 477 421 464L413 434Q391 351 363.0 320.0Q335 289 286 289Q213 289 165.5 375.5Q118 462 118 626Q118 795 166.5 883.5Q215 972 291 972Q332 972 353.0 954.0Q374 936 374 887V668Q374 647 367.5 639.0Q361 631 340 629L301 625Q288 624 288 613Q288 602 303 602H486Q501 602 501 614Q501 623 490 625L475 627Q453 630 449.0 639.0Q445 648 445 669V940Q445 951 439.0 957.5Q433 964 418 972Q394 984 363.0 991.5Q332 999 291 999Z M675 544Q716 474 774 474Q807 474 823.0 493.5Q839 513 839 537Q839 556 829.5 568.0Q820 580 800 580Q784 580 776.5 572.5Q769 565 764.5 555.0Q760 545 754.0 537.5Q748 530 734 530Q716 530 700.0 551.5Q684 573 673.5 609.0Q663 645 663 691V923Q663 944 669.5 953.0Q676 962 697 964L724 967Q735 969 735 978Q735 990 720 990H551Q536 990 536 979Q536 970 549 967L561 965Q582 961 588.5 952.5Q595 944 595 923V587Q595 569 589.5 562.5Q584 556 570 554L549 551Q536 550 536 540Q536 532 552 529Q583 524 599.5 513.0Q616 502 634 486Q643 477 649 477Q658 477 658 489V543Q658 550 664.0 551.5Q670 553 675 544Z M959 999Q917 999 890.0 972.5Q863 946 863 902Q863 859 890.0 820.5Q917 782 964.0 751.0Q1011 720 1071 701Q1084 697 1084 684V593Q1084 545 1069.0 524.5Q1054 504 1028 504Q1003 504 982.5 526.5Q962 549 953 602Q948 634 931.5 648.5Q915 663 898 663Q870 663 870 635Q870 606 886.5 577.5Q903 549 930.0 525.5Q957 502 989.0 488.0Q1021 474 1053 474Q1152 474 1152 589V895Q1152 937 1173 937Q1186 937 1197.0 919.5Q1208 902 1208 860Q1208 844 1221 844Q1233 844 1233 861Q1233 934 1207.5 966.5Q1182 999 1150 999Q1126 999 1112.0 979.5Q1098 960 1093 933Q1092 923 1084.5 922.5Q1077 922 1070 932Q1046 965 1021.0 982.0Q996 999 959 999ZM986 953Q1012 953 1034.0 934.5Q1056 916 1070.0 885.0Q1084 854 1084 815V742Q1084 723 1063 731Q1002 753 968.5 791.5Q935 830 935 884Q935 953 986 953Z M1265 1195Q1250 1195 1250 1184Q1250 1173 1263 1172L1277 1170Q1298 1167 1304.5 1158.0Q1311 1149 1311 1128V587Q1311 569 1305.5 562.5Q1300 556 1286 554L1265 551Q1252 550 1252 540Q1252 532 1268 529Q1299 524 1315.5 513.0Q1332 502 1350 486Q1359 477 1365 477Q1374 477 1374 489V520Q1374 527 1380.0 529.5Q1386 532 1394 524L1405 513Q1425 493 1446.0 483.5Q1467 474 1494 474Q1540 474 1575.5 504.5Q1611 535 1631.5 589.0Q1652 643 1652 716Q1652 799 1626.0 863.0Q1600 927 1554.5 963.0Q1509 999 1450 999Q1420 999 1397 988Q1379 980 1379 999V1128Q1379 1149 1385.5 1156.5Q1392 1164 1413 1167L1450 1172Q1461 1174 1461 1183Q1461 1195 1446 1195ZM1453 974Q1509 974 1543.5 908.0Q1578 842 1578 730Q1578 627 1548.0 573.0Q1518 519 1463 519Q1429 519 1404.0 547.0Q1379 575 1379 625V877Q1379 922 1399.5 948.0Q1420 974 1453 974Z M1874 999Q1826 999 1788.0 967.0Q1750 935 1727.5 876.5Q1705 818 1705 741Q1705 662 1728.0 602.0Q1751 542 1791.0 508.0Q1831 474 1880 474Q1939 474 1975.5 522.5Q2012 571 2012 680Q2012 713 1987 713H1797Q1777 713 1777 736Q1777 842 1808.0 895.0Q1839 948 1887 948Q1925 948 1949.0 921.0Q1973 894 1988 830Q1991 819 2001 819Q2013 819 2010 839Q1994 928 1959.0 963.5Q1924 999 1874 999ZM1794 688H1895Q1943 688 1943 638Q1943 573 1927.0 536.0Q1911 499 1879 499Q1840 499 1813.5 544.0Q1787 589 1779 672Q1777 688 1794 688Z M2231 999Q2222 999 2218 988L2085 547Q2078 523 2071.5 516.0Q2065 509 2051 506L2036 503Q2023 500 2023 490Q2023 480 2037 480H2202Q2216 480 2216 490Q2216 501 2203 503L2187 505Q2163 508 2157.0 516.5Q2151 525 2157 547L2240 836Q2243 847 2250.0 847.0Q2257 847 2260 836L2341 565Q2349 538 2345.5 524.5Q2342 511 2317 507L2296 503Q2283 500 2283 490Q2283 480 2297 480H2424Q2438 480 2438 491Q2438 501 2426 505L2417 508Q2402 513 2391.5 526.0Q2381 539 2371 571L2244 988Q2240 999 2231 999Z M2544 385Q2523 385 2508.5 370.0Q2494 355 2494 332Q2494 309 2508.5 294.5Q2523 280 2544 280Q2565 280 2579.0 294.5Q2593 309 2593 332Q2593 355 2579.0 370.0Q2565 385 2544 385ZM2460 990Q2445 990 2445 979Q2445 970 2458 967L2470 965Q2495 961 2502.0 952.5Q2509 944 2509 923V587Q2509 569 2503.5 562.5Q2498 556 2484 554L2463 551Q2450 550 2450 540Q2450 532 2466 529Q2497 524 2516.0 513.0Q2535 502 2553 486Q2562 477 2568 477Q2577 477 2577 489V923Q2577 944 2583.0 953.0Q2589 962 2606 964L2631 967Q2642 969 2642 978Q2642 990 2627 990Z M2683 990Q2668 990 2668 979Q2668 970 2681 967L2693 965Q2714 961 2720.5 952.5Q2727 944 2727 923V587Q2727 569 2721.5 562.5Q2716 556 2702 554L2681 551Q2668 550 2668 540Q2668 532 2684 529Q2715 524 2731.5 513.0Q2748 502 2766 486Q2775 477 2781 477Q2790 477 2790 489V534Q2790 543 2796.5 545.5Q2803 548 2811 540Q2851 502 2881.5 488.0Q2912 474 2946 474Q2991 474 3018.0 505.5Q3045 537 3045 598V923Q3045 944 3051.5 952.5Q3058 961 3079 964L3101 967Q3112 969 3112 979Q3112 990 3100 990H2932Q2918 990 2918 979Q2918 969 2929 967L2943 965Q2964 962 2970.5 953.0Q2977 944 2977 923V609Q2977 560 2959.0 540.0Q2941 520 2908 520Q2876 520 2850.5 538.5Q2825 557 2810.0 587.5Q2795 618 2795 655V923Q2795 944 2801.5 953.0Q2808 962 2829 964L2856 967Q2867 969 2867 978Q2867 990 2852 990Z M3315 999Q3267 999 3229.0 967.0Q3191 935 3168.5 876.5Q3146 818 3146 741Q3146 662 3169.0 602.0Q3192 542 3232.0 508.0Q3272 474 3321 474Q3380 474 3416.5 522.5Q3453 571 3453 680Q3453 713 3428 713H3238Q3218 713 3218 736Q3218 842 3249.0 895.0Q3280 948 3328 948Q3366 948 3390.0 921.0Q3414 894 3429 830Q3432 819 3442 819Q3454 819 3451 839Q3435 928 3400.0 963.5Q3365 999 3315 999ZM3235 688H3336Q3384 688 3384 638Q3384 573 3368.0 536.0Q3352 499 3320 499Q3281 499 3254.5 544.0Q3228 589 3220 672Q3218 688 3235 688Z" fill="#FAFAF9"/>
</svg>
