<svg xmlns="http://www.w3.org/2000/svg" version="1.1" viewBox="0.00 0.00 706.00 196.00">
<path fill="#000000" d="M 53.36 73.70&#xA;  L 53.37 73.66&#xA;  A 2.18 2.17 0.8 0 1 55.54 71.56&#xA;  Q 75.22 71.46 94.99 71.56&#xA;  C 97.00 71.57 97.97 73.85 96.64 75.41&#xA;  Q 96.00 76.15 93.93 76.43&#xA;  Q 91.27 76.77 88.72 77.61&#xA;  A 3.69 3.68 89.2 0 0 86.34 80.06&#xA;  Q 85.70 82.22 85.70 85.25&#xA;  Q 85.72 136.69 85.69 142.17&#xA;  A 4.26 4.20 -24.8 0 1 84.67 144.89&#xA;  Q 82.96 146.90 80.02 148.27&#xA;  C 70.85 152.55 62.16 153.93 52.25 153.67&#xA;  C 21.73 152.84 7.77 126.70 3.60 100.00&#xA;  C -0.46 74.01 1.46 44.85 16.47 22.73&#xA;  Q 20.07 17.42 27.06 11.34&#xA;  Q 38.93 1.01 55.95 0.86&#xA;  Q 70.86 0.73 82.55 6.16&#xA;  Q 85.14 7.37 85.48 10.76&#xA;  Q 85.55 11.51 86.14 41.75&#xA;  C 86.16 42.97 86.00 45.63 84.14 45.61&#xA;  Q 81.54 45.58 80.97 43.46&#xA;  C 78.39 33.88 75.95 24.72 71.45 17.06&#xA;  C 68.70 12.40 64.27 8.63 58.86 7.49&#xA;  Q 44.50 4.46 34.81 14.92&#xA;  C 23.98 26.62 20.02 43.62 18.67 59.50&#xA;  Q 16.96 79.65 19.34 99.96&#xA;  C 21.76 120.63 32.35 153.51 60.18 147.51&#xA;  C 69.15 145.57 71.00 138.61 71.01 130.50&#xA;  Q 71.05 110.04 71.03 87.00&#xA;  C 71.03 82.80 71.22 78.74 66.49 77.74&#xA;  Q 64.19 77.25 55.43 76.13&#xA;  A 2.37 2.36 4.6 0 1 53.36 73.70&#xA;  Z"/>
<ellipse fill="#000000" cx="0.00" cy="0.00" transform="translate(516.78,15.65) rotate(-88.1)" rx="10.92" ry="10.27"/>
<path fill="#000000" d="M 104.85 59.36&#xA;  A 2.63 2.20 -10.5 0 1 107.02 56.73&#xA;  Q 111.93 55.80 114.55 54.79&#xA;  C 119.19 53.02 122.98 48.85 126.83 46.16&#xA;  A 1.90 1.90 0.0 0 1 129.57 46.78&#xA;  Q 129.85 47.27 129.85 48.50&#xA;  C 129.85 53.98 129.48 59.36 130.45 60.63&#xA;  A 1.42 1.36 -47.1 0 0 132.72 60.50&#xA;  C 136.96 54.08 140.97 48.28 148.25 46.00&#xA;  C 155.72 43.67 163.96 45.43 166.58 53.52&#xA;  Q 168.46 59.33 166.02 63.42&#xA;  C 163.92 66.97 156.42 68.85 153.51 64.27&#xA;  Q 151.38 60.90 150.25 58.83&#xA;  A 2.20 2.18 -0.3 0 0 149.33 57.93&#xA;  C 143.06 54.61 138.69 59.83 136.23 65.01&#xA;  Q 130.99 76.07 130.95 89.76&#xA;  Q 130.88 119.85 130.93 136.76&#xA;  C 130.95 140.69 130.94 144.70 135.08 145.88&#xA;  Q 137.36 146.53 142.65 147.14&#xA;  C 144.26 147.32 146.29 148.25 145.72 150.05&#xA;  A 2.81 2.54 -80.4 0 1 143.23 152.01&#xA;  Q 112.96 151.94 107.50 152.07&#xA;  Q 105.16 152.12 104.80 150.23&#xA;  A 2.50 2.27 -13.1 0 1 106.65 147.55&#xA;  Q 112.13 146.10 113.08 145.81&#xA;  A 3.79 3.59 20.0 0 0 113.91 145.45&#xA;  Q 116.78 143.71 116.80 139.24&#xA;  Q 116.89 109.75 116.83 69.26&#xA;  C 116.83 66.06 116.69 63.04 113.06 62.16&#xA;  Q 110.27 61.48 106.90 60.85&#xA;  Q 105.06 60.50 104.85 59.36&#xA;  Z"/>
<path fill="#000000" d="M 212.44 91.53&#xA;  A 2.84 2.82 -10.4 0 0 214.19 89.01&#xA;  Q 214.57 76.99 214.07 65.27&#xA;  C 213.81 59.21 211.25 52.67 204.67 51.43&#xA;  C 198.85 50.34 193.51 54.61 190.95 59.25&#xA;  Q 188.64 63.45 186.44 74.36&#xA;  C 185.41 79.45 179.98 85.27 174.17 84.11&#xA;  C 170.47 83.37 169.62 80.17 170.18 76.66&#xA;  Q 171.20 70.20 172.99 67.24&#xA;  Q 182.58 51.36 200.32 46.09&#xA;  Q 205.59 44.53 211.97 45.34&#xA;  C 224.62 46.93 228.25 57.57 228.32 68.75&#xA;  Q 228.45 89.77 228.34 131.96&#xA;  C 228.33 135.41 228.66 140.83 233.07 141.02&#xA;  Q 234.85 141.10 236.51 139.04&#xA;  C 239.74 135.04 239.95 129.32 240.03 124.30&#xA;  A 2.46 2.46 0.0 0 1 242.52 121.88&#xA;  L 242.63 121.88&#xA;  A 2.44 2.44 0.0 0 1 245.04 124.24&#xA;  C 245.40 135.36 243.14 149.14 231.79 153.16&#xA;  Q 226.54 155.02 221.57 151.38&#xA;  C 219.04 149.53 216.79 143.13 215.85 139.38&#xA;  A 1.86 1.86 0.0 0 0 212.63 138.63&#xA;  C 207.17 145.04 202.66 150.82 194.67 153.16&#xA;  Q 193.21 153.59 184.78 153.71&#xA;  A 3.95 3.78 50.4 0 1 183.75 153.59&#xA;  Q 172.78 150.74 169.60 140.90&#xA;  C 165.81 129.18 172.22 116.94 180.98 109.24&#xA;  Q 191.74 99.79 200.89 96.14&#xA;  Q 212.22 91.62 212.44 91.53&#xA;  Z&#xA;  M 211.65 97.83&#xA;  C 200.88 100.93 189.84 108.12 185.60 118.39&#xA;  C 182.66 125.53 180.82 143.56 192.76 144.16&#xA;  Q 199.93 144.53 204.82 139.59&#xA;  C 211.12 133.23 213.91 125.24 214.20 116.49&#xA;  Q 214.49 107.40 214.20 99.68&#xA;  A 2.00 2.00 0.0 0 0 211.65 97.83&#xA;  Z"/>
<path fill="#000000" d="M 249.46 58.04&#xA;  C 251.59 56.02 256.93 55.68 259.18 54.79&#xA;  C 263.51 53.09 267.89 48.69 270.99 46.39&#xA;  A 2.29 2.07 -37.3 0 1 274.05 46.65&#xA;  Q 274.34 47.03 274.37 48.32&#xA;  Q 274.46 51.86 274.42 53.65&#xA;  C 274.37 56.32 276.16 57.73 278.26 55.76&#xA;  Q 281.17 53.03 283.67 50.51&#xA;  A 4.81 4.56 -83.4 0 1 284.41 49.89&#xA;  Q 297.68 40.99 312.28 48.46&#xA;  Q 313.58 49.12 317.29 52.58&#xA;  C 323.66 58.52 327.97 67.45 329.85 75.88&#xA;  C 334.75 97.89 331.99 126.49 315.27 143.28&#xA;  Q 303.34 155.27 286.82 153.49&#xA;  C 283.41 153.13 281.23 152.12 277.92 151.12&#xA;  A 1.38 1.37 40.4 0 0 276.97 151.19&#xA;  Q 275.51 151.84 275.50 153.76&#xA;  Q 275.43 165.16 275.47 177.22&#xA;  Q 275.49 183.62 275.99 184.79&#xA;  Q 277.30 187.89 282.23 188.66&#xA;  Q 282.64 188.73 290.44 189.85&#xA;  A 2.21 2.21 0.0 0 1 292.31 192.34&#xA;  L 292.31 192.37&#xA;  A 2.42 2.42 0.0 0 1 289.91 194.46&#xA;  Q 268.81 194.50 250.78 194.47&#xA;  A 1.99 1.93 89.9 0 1 248.85 192.49&#xA;  Q 248.84 190.34 250.94 189.92&#xA;  C 254.55 189.21 257.76 188.87 259.83 186.85&#xA;  A 2.17 2.14 78.4 0 0 260.35 186.05&#xA;  Q 261.40 183.13 261.40 179.99&#xA;  Q 261.38 161.31 261.39 69.35&#xA;  C 261.39 66.95 261.36 63.52 258.53 62.50&#xA;  Q 255.86 61.53 251.63 60.93&#xA;  Q 249.83 60.67 249.24 58.94&#xA;  A 0.86 0.85 -31.3 0 1 249.46 58.04&#xA;  Z&#xA;  M 285.14 56.60&#xA;  C 278.10 60.79 275.45 68.46 275.46 76.75&#xA;  Q 275.48 127.11 275.48 129.01&#xA;  Q 275.48 137.11 279.66 143.00&#xA;  C 285.00 150.53 295.62 150.02 302.27 144.41&#xA;  C 309.08 138.68 312.91 128.50 314.56 120.10&#xA;  Q 318.61 99.49 314.98 78.76&#xA;  C 312.98 67.35 307.22 56.31 294.71 54.67&#xA;  Q 289.53 53.99 285.14 56.60&#xA;  Z"/>
<path fill="#000000" d="M 402.63 94.38&#xA;  Q 376.23 94.62 362.99 94.44&#xA;  Q 358.25 94.38 358.08 98.46&#xA;  Q 357.57 110.68 360.64 122.77&#xA;  C 362.60 130.51 366.60 137.57 373.80 141.52&#xA;  Q 377.01 143.28 380.58 143.29&#xA;  Q 386.08 143.30 390.11 140.72&#xA;  C 396.56 136.58 400.00 126.33 401.59 118.93&#xA;  A 2.84 2.84 0.0 0 1 404.29 116.69&#xA;  L 404.37 116.69&#xA;  A 1.98 1.98 0.0 0 1 406.38 118.93&#xA;  C 404.99 129.17 401.21 143.39 392.11 149.45&#xA;  Q 381.58 156.46 369.20 152.25&#xA;  C 354.33 147.20 346.50 129.90 344.21 115.23&#xA;  Q 341.82 99.93 344.41 84.16&#xA;  C 347.11 67.75 357.36 47.31 376.11 45.31&#xA;  Q 383.74 44.50 390.34 47.68&#xA;  C 403.70 54.15 406.38 71.20 406.57 84.69&#xA;  C 406.61 87.76 407.11 92.50 403.72 94.13&#xA;  A 2.73 2.70 -57.6 0 1 402.63 94.38&#xA;  Z&#xA;  M 359.32 88.73&#xA;  Q 360.71 89.47 362.00 89.50&#xA;  Q 364.12 89.54 380.48 89.52&#xA;  C 382.12 89.52 385.23 89.31 386.51 88.75&#xA;  Q 391.15 86.71 391.75 83.22&#xA;  Q 393.38 73.68 390.25 61.73&#xA;  Q 388.94 56.72 387.34 54.77&#xA;  C 381.11 47.14 372.09 50.03 367.06 57.40&#xA;  Q 362.62 63.90 360.86 71.15&#xA;  Q 359.18 78.03 358.30 86.82&#xA;  A 1.96 1.94 17.1 0 0 359.32 88.73&#xA;  Z"/>
<path fill="#000000" d="M 542.81 59.34&#xA;  A 2.57 2.20 -10.0 0 1 544.92 56.78&#xA;  Q 549.28 55.92 551.98 55.00&#xA;  C 556.56 53.44 560.49 49.41 563.83 46.83&#xA;  Q 565.10 45.84 566.30 45.85&#xA;  A 1.81 1.44 87.0 0 1 567.76 47.50&#xA;  Q 567.90 49.01 567.89 57.33&#xA;  Q 567.89 58.76 568.79 59.47&#xA;  A 2.14 2.14 0.0 0 0 571.57 59.35&#xA;  Q 575.76 55.44 579.97 52.24&#xA;  C 588.62 45.67 600.95 42.39 610.89 47.97&#xA;  C 617.75 51.81 620.60 61.17 620.66 68.67&#xA;  Q 620.76 84.04 620.71 137.50&#xA;  C 620.71 140.98 620.95 143.86 624.08 145.62&#xA;  A 3.38 2.81 -18.2 0 0 624.79 145.90&#xA;  Q 625.93 146.19 631.46 147.12&#xA;  C 633.59 147.48 635.26 148.51 634.29 150.74&#xA;  Q 633.76 151.95 632.48 151.96&#xA;  Q 619.86 152.03 598.48 151.99&#xA;  C 596.54 151.99 594.88 152.23 594.52 150.22&#xA;  A 2.49 2.40 79.3 0 1 596.38 147.38&#xA;  C 599.59 146.73 602.78 146.34 604.55 144.83&#xA;  Q 606.40 143.26 606.62 139.24&#xA;  Q 606.66 138.49 606.65 72.64&#xA;  Q 606.65 66.69 604.73 61.85&#xA;  C 601.06 52.55 588.30 53.03 581.30 58.02&#xA;  Q 568.99 66.80 568.95 82.52&#xA;  Q 568.84 128.75 568.98 138.50&#xA;  C 569.03 142.58 569.85 145.42 574.30 146.17&#xA;  Q 574.49 146.20 581.93 147.40&#xA;  A 2.11 2.11 0.0 0 1 583.67 149.86&#xA;  L 583.66 149.89&#xA;  A 2.54 2.53 -84.9 0 1 581.18 151.97&#xA;  Q 566.63 152.02 545.50 152.00&#xA;  C 541.57 152.00 542.06 148.10 545.13 147.38&#xA;  Q 549.21 146.42 551.22 145.74&#xA;  C 554.53 144.61 554.84 140.82 554.84 137.50&#xA;  Q 554.86 102.34 554.83 68.01&#xA;  C 554.82 61.62 550.10 61.87 545.13 60.89&#xA;  Q 542.98 60.47 542.81 59.34&#xA;  Z"/>
<path fill="#000000" d="M 702.47 94.13&#xA;  A 2.73 2.70 -57.6 0 1 701.38 94.38&#xA;  Q 674.98 94.62 661.74 94.44&#xA;  Q 657.00 94.38 656.83 98.46&#xA;  Q 656.32 110.68 659.39 122.77&#xA;  C 661.35 130.51 665.35 137.57 672.55 141.52&#xA;  Q 675.76 143.28 679.33 143.29&#xA;  Q 684.83 143.30 688.86 140.72&#xA;  C 695.31 136.58 698.75 126.33 700.34 118.93&#xA;  A 2.84 2.84 0.0 0 1 703.04 116.69&#xA;  L 703.12 116.69&#xA;  A 1.98 1.98 0.0 0 1 705.13 118.93&#xA;  C 703.74 129.17 699.96 143.39 690.86 149.45&#xA;  Q 680.33 156.46 667.95 152.25&#xA;  C 653.08 147.20 645.25 129.90 642.96 115.23&#xA;  Q 640.57 99.93 643.16 84.16&#xA;  C 645.86 67.75 656.11 47.31 674.86 45.31&#xA;  Q 682.49 44.50 689.09 47.68&#xA;  C 702.45 54.15 705.13 71.20 705.32 84.69&#xA;  C 705.36 87.76 705.86 92.50 702.47 94.13&#xA;  Z&#xA;  M 658.07 88.72&#xA;  Q 659.46 89.46 660.75 89.49&#xA;  Q 662.87 89.53 679.23 89.52&#xA;  C 680.87 89.52 683.98 89.31 685.26 88.75&#xA;  Q 689.90 86.71 690.50 83.22&#xA;  Q 692.13 73.68 689.00 61.73&#xA;  Q 687.69 56.73 686.09 54.78&#xA;  C 679.86 47.15 670.85 50.03 665.82 57.40&#xA;  Q 661.38 63.90 659.61 71.15&#xA;  Q 657.93 78.03 657.05 86.81&#xA;  A 1.96 1.94 17.1 0 0 658.07 88.72&#xA;  Z"/>
<path fill="#000000" d="M 523.33 46.48&#xA;  Q 523.66 46.79 523.66 47.90&#xA;  Q 523.69 62.06 523.70 138.74&#xA;  C 523.71 146.56 528.28 146.29 534.72 147.27&#xA;  Q 536.11 147.48 536.76 148.43&#xA;  A 2.04 2.03 54.3 0 1 536.32 151.18&#xA;  Q 535.26 152.00 533.50 152.00&#xA;  Q 512.65 151.99 498.45 151.99&#xA;  A 2.04 2.00 -77.1 0 1 496.66 149.08&#xA;  C 498.02 146.20 504.78 146.98 507.38 144.85&#xA;  Q 509.56 143.06 509.58 139.24&#xA;  Q 509.68 110.92 509.61 69.06&#xA;  Q 509.61 65.79 508.73 63.94&#xA;  A 1.72 1.70 -88.3 0 0 508.05 63.21&#xA;  C 504.92 61.41 501.47 61.47 498.62 60.46&#xA;  A 1.67 1.66 -53.9 0 1 498.17 57.57&#xA;  Q 499.05 56.89 501.19 56.44&#xA;  Q 508.59 54.90 511.38 53.03&#xA;  Q 515.63 50.19 520.09 46.48&#xA;  A 2.52 2.41 -43.8 0 1 523.33 46.48&#xA;  Z"/>
<path fill="#000000" d="M 409.48 47.28&#xA;  Q 410.01 46.35 411.29 46.34&#xA;  Q 429.76 46.20 446.97 46.33&#xA;  A 1.96 1.95 -87.5 0 1 448.90 48.44&#xA;  L 448.90 48.46&#xA;  A 2.68 2.68 0.0 0 1 446.60 50.90&#xA;  Q 436.44 52.31 436.35 54.70&#xA;  Q 436.23 57.83 436.75 59.75&#xA;  Q 437.03 60.82 454.06 119.94&#xA;  Q 454.55 121.66 455.54 122.05&#xA;  A 1.86 1.82 -71.0 0 0 457.95 120.84&#xA;  Q 466.56 92.32 474.84 64.59&#xA;  C 475.94 60.90 478.01 53.99 472.63 52.67&#xA;  C 468.92 51.75 462.46 51.08 463.15 47.78&#xA;  A 2.01 1.78 4.7 0 1 465.06 46.35&#xA;  Q 480.33 46.17 492.67 46.35&#xA;  C 496.30 46.41 495.29 50.52 492.81 51.27&#xA;  C 484.62 53.74 483.08 59.12 480.51 67.55&#xA;  Q 469.08 105.07 454.84 151.63&#xA;  A 2.94 2.88 -82.5 0 1 452.20 153.70&#xA;  Q 450.30 153.78 449.62 151.62&#xA;  Q 445.81 139.32 421.92 60.07&#xA;  Q 421.13 57.47 420.15 55.37&#xA;  C 418.63 52.13 414.88 51.72 411.84 50.92&#xA;  C 410.12 50.47 408.50 49.01 409.48 47.28&#xA;  Z"/>
</svg>
